{
    "asset" : {
        "generator" : "Khronos glTF Blender I/O v1.6.16",
        "version" : "2.0"
    },
    "scene" : 0,
    "scenes" : [
        {
            "name" : "Scene",
            "nodes" : [
                0
            ]
        }
    ],
    "nodes" : [
        {
            "mesh" : 0,
            "name" : "Landscape"
        }
    ],
    "meshes" : [
        {
            "name" : "Landscape",
            "primitives" : [
                {
                    "attributes" : {
                        "POSITION" : 0,
                        "NORMAL" : 1
                    },
                    "indices" : 2
                }
            ]
        }
    ],
    "accessors" : [
        {
            "bufferView" : 0,
            "componentType" : 5126,
            "count" : 1089,
            "max" : [
                1.1649034023284912,
                1.2147741317749023,
                1.1791245937347412
            ],
            "min" : [
                -1.2271469831466675,
                -1.1628259420394897,
                -1.1987942457199097
            ],
            "type" : "VEC3"
        },
        {
            "bufferView" : 1,
            "componentType" : 5126,
            "count" : 1089,
            "type" : "VEC3"
        },
        {
            "bufferView" : 2,
            "componentType" : 5123,
            "count" : 6144,
            "type" : "SCALAR"
        }
    ],
    "bufferViews" : [
        {
            "buffer" : 0,
            "byteLength" : 13068,
            "byteOffset" : 0
        },
        {
            "buffer" : 0,
            "byteLength" : 13068,
            "byteOffset" : 13068
        },
        {
            "buffer" : 0,
            "byteLength" : 12288,
            "byteOffset" : 26136
        }
    ],
    "buffers" : [
        {
            "byteLength" : 38424,
            "uri" : "rock.bin"
        }
    ]
}
